<svg width="32" height="28" viewBox="0 0 32 28" fill="none" xmlns="http://www.w3.org/2000/svg">
<path d="M25.2275 1.07642C26.6336 3.58431 27.8933 4.76292 30.7275 6.57642C28.5842 6.02311 27.3806 6.026 25.2275 6.68511C25.865 4.86774 25.8402 3.62577 25.2275 1.07642Z" fill="#FFBB25" fill-opacity="0.5"/>
<path d="M16.2275 4.07642C11.2633 5.56829 8.17261 5.49283 2.22754 4.07642C4.99215 11.8517 4.83356 16.8381 2.22754 26.5764C11.2096 25.2812 16.2454 25.1283 25.2275 26.5764C23.9819 22.2401 23.883 19.9217 25.2275 16.0764M16.2275 16.0764C20.3049 13.0605 22.3921 11.1394 25.2275 6.68511M25.2275 6.68511C25.865 4.86774 25.8402 3.62577 25.2275 1.07642C26.6336 3.58431 27.8933 4.76292 30.7275 6.57642C28.5842 6.02311 27.3806 6.026 25.2275 6.68511Z" stroke="#D8D2C3" stroke-width="2"/>
</svg>
