<svg width="326" height="176" viewBox="0 0 326 176" fill="none" xmlns="http://www.w3.org/2000/svg">
<path d="M187.383 1.72993C234.244 0.70097 260.245 2.99537 306.248 7.16556L321.525 10.1649C325.23 15.8791 325.681 19.1968 324.253 25.2502C316.406 33.6237 310.929 35.5211 300.494 37.1681C291.551 36.6893 285.508 37.4655 285.164 28.2539C256.288 60.9981 245.643 104.324 225.494 145.046C231.234 144.748 233.482 145.021 235.41 146.494C240.379 148.689 242.196 150.131 243.229 153.21C245.167 157.375 245.36 160.427 245.543 166.003C243.942 169.663 240.193 171.42 230.777 174.262C226.021 174.95 221.116 174.454 209.625 172.497C170.594 163.032 146.172 158.879 93.771 152.799C129.887 78.6381 149.809 25.8444 187.383 1.72993Z" fill="#FFBB25" fill-opacity="0.5"/>
<path fill-rule="evenodd" clip-rule="evenodd" d="M85.8953 64.2874C80.9979 53.6642 72.8627 37.1738 72.8627 37.1738C55.1949 21.1774 42.5072 13.9338 18.6943 1.74733C9.94825 3.75314 5.98879 5.75445 1.73514 11.9276C38.5461 29.8691 57.3051 41.3209 85.8953 64.2874ZM80.3594 63.7462C70.9786 62.8432 60.0488 61.8477 60.0488 61.8477C43.4789 48.2281 32.8887 41.4278 5.82784 34.5605C1.89999 25.8289 1.19032 21.1601 1.51078 15.0168C33.2095 30.3512 50.8718 40.7114 80.3594 63.7462ZM80.3594 63.7462C80.8888 64.1597 81.422 64.5774 81.9592 64.9992C88.8565 70.6668 97.1958 79.0116 97.1958 79.0116L103.053 80.493C103.053 80.493 92.7879 70.5814 85.8953 64.2874C84.1916 64.1175 82.3089 63.9338 80.3594 63.7462Z" fill="#FFBB25" fill-opacity="0.5"/>
<path d="M1.73514 11.9276C38.5461 29.8691 57.3051 41.3209 85.8953 64.2874M1.73514 11.9276C5.98879 5.75445 9.94825 3.75314 18.6943 1.74733C42.5072 13.9338 55.1949 21.1774 72.8627 37.1738C72.8627 37.1738 80.9979 53.6642 85.8953 64.2874M1.73514 11.9276C1.63991 13.0104 1.56212 14.0325 1.51078 15.0168M85.8953 64.2874C92.7879 70.5814 103.053 80.493 103.053 80.493L97.1958 79.0116C97.1958 79.0116 88.8565 70.6668 81.9592 64.9992C81.422 64.5774 80.8888 64.1597 80.3594 63.7462M85.8953 64.2874C84.1916 64.1175 82.3089 63.9338 80.3594 63.7462M306.248 7.16556C260.245 2.99538 234.244 0.700967 187.383 1.72993C149.809 25.8444 129.887 78.6381 93.771 152.799C146.172 158.879 170.594 163.032 209.625 172.497M306.248 7.16556L321.525 10.1649C325.23 15.8791 325.681 19.1968 324.253 25.2502C316.406 33.6236 310.929 35.5211 300.494 37.1681M306.248 7.16556C304.632 9.42486 303.516 10.8551 300.86 13.9017M209.625 172.497C221.116 174.454 226.021 174.95 230.777 174.262C240.193 171.42 243.942 169.663 245.543 166.003C245.36 160.427 245.167 157.375 243.229 153.21C242.196 150.131 240.379 148.689 235.41 146.494M209.625 172.497L225.494 145.046M300.494 37.1681C296.067 30.0996 295.256 26.6912 297.736 21.9155M300.494 37.1681C291.551 36.6893 285.508 37.4655 285.164 28.2539M297.736 21.9155C303.458 18.4368 306.903 17.7969 313.481 19.0684M297.736 21.9155L307.304 24.2501C312.575 24.1444 313.035 22.4112 313.481 19.0684M313.481 19.0684C308.817 15.9293 306.146 14.4115 300.86 13.9017M285.164 28.2539C256.288 60.9981 245.643 104.324 225.494 145.046M285.164 28.2539C298.656 12.9535 288.388 23.6059 300.86 13.9017M235.41 146.494C230.406 150.644 228.685 153.35 228.019 159.009C231.211 164.686 233.844 163.983 238.435 163.223M235.41 146.494C233.482 145.021 231.234 144.748 225.494 145.046M1.51078 15.0168C1.19032 21.1601 1.89999 25.8289 5.82784 34.5605C32.8887 41.4278 43.4789 48.2281 60.0488 61.8477C60.0488 61.8477 70.9786 62.8432 80.3594 63.7462M1.51078 15.0168C33.2095 30.3512 50.8718 40.7114 80.3594 63.7462" stroke="#55534C"/>
</svg>
